<svg width="20" height="27" viewBox="0 0 20 27" fill="none" xmlns="http://www.w3.org/2000/svg">
<path d="M8.70148 0.530425C5.03895 0.886049 1.84559 3.40547 0.670156 6.87154C0.301886 7.95845 0.110183 9.25572 0.175766 10.2725C0.362423 13.2026 2.77384 17.6905 7.0821 23.115C7.98007 24.252 8.56023 24.9382 9.56414 26.0652C9.62468 26.1353 10.0384 25.6945 11.0574 24.4724C14.9015 19.8693 17.6661 15.4666 18.6448 12.4012C18.9626 11.3945 19.0433 10.8986 19.0433 9.8718C19.0484 8.87005 18.9979 8.41425 18.7911 7.59281C18.1151 4.87805 16.1577 2.53394 13.6 1.3719C12.6818 0.956172 12.0512 0.760829 11.1028 0.605557C10.5025 0.51039 9.30686 0.47032 8.70148 0.530425ZM10.4722 2.03306C12.3035 2.24343 13.827 2.95468 15.1588 4.23191C16.4251 5.44905 17.1969 6.94668 17.4895 8.74483C17.6056 9.49114 17.5652 10.5881 17.3886 11.2743C16.6521 14.1643 14.3517 18.0061 10.5428 22.7193C10.109 23.2603 9.71549 23.7261 9.67513 23.7612C9.6045 23.8213 9.55405 23.7712 8.32312 22.2685C7.6118 21.397 6.1135 19.3634 5.35173 18.2365C4.26205 16.6236 3.08662 14.54 2.52664 13.2277C2.229 12.5365 1.94649 11.68 1.82037 11.104C1.41174 9.25572 1.92631 7.02681 3.14715 5.30379C3.54569 4.74281 4.44871 3.84624 5.01373 3.45054C6.5978 2.3436 8.60058 1.82269 10.4722 2.03306Z" fill="#3B335E" fill-opacity="0.9"/>
<path d="M9.06975 3.99149C7.2284 4.17181 5.58379 5.25871 4.706 6.89157C3.52552 9.07039 3.94928 11.7451 5.74018 13.4531C6.69365 14.3697 7.74801 14.8656 9.04453 15.0058C11.2693 15.2562 13.4436 14.1042 14.5535 12.0957C15.2395 10.8535 15.3858 9.12048 14.9167 7.7631C14.508 6.561 13.7261 5.55924 12.6667 4.86302C11.6224 4.18182 10.341 3.87128 9.06975 3.99149ZM10.6488 5.5943C11.9201 5.91987 13.0198 6.9066 13.4436 8.11873C13.6454 8.68973 13.6908 9.04034 13.6605 9.71152C13.6151 10.8435 13.2166 11.68 12.3438 12.4864C11.6577 13.1225 10.5832 13.5482 9.65999 13.5533C7.82369 13.5583 6.20935 12.3361 5.69478 10.563C5.59893 10.2424 5.57875 10.0521 5.57875 9.49614C5.58379 8.70475 5.64938 8.39421 5.98233 7.71802C6.82482 5.995 8.75193 5.11847 10.6488 5.5943Z" fill="#3B335E" fill-opacity="0.9"/>
</svg>
