<svg width="26" height="26" viewBox="0 0 26 26" fill="none" xmlns="http://www.w3.org/2000/svg">
<path d="M11.956 0.0350673C10.0843 0.210375 8.6617 0.606068 7.1079 1.38243C5.87193 1.9935 4.86801 2.72478 3.80356 3.77663C2.67352 4.9036 1.95716 5.89534 1.28116 7.28778C0.484079 8.92065 0.0855395 10.5435 0.0149123 12.3967C-0.0607597 14.5305 0.383183 16.564 1.3417 18.4774C2.01265 19.8248 2.70884 20.7764 3.80356 21.8683C4.91846 22.9703 5.88202 23.6565 7.23907 24.3176C8.18749 24.7784 8.79791 25.0038 9.76147 25.2443C12.2839 25.8754 14.8214 25.7501 17.2732 24.8886C17.9441 24.6532 19.1549 24.0722 19.725 23.7116C22.7619 21.7982 24.8858 18.7579 25.5719 15.3519C25.7636 14.4103 25.8039 13.9645 25.8039 12.8225C25.8039 11.6805 25.7636 11.2347 25.5719 10.2931C24.906 6.97724 22.8729 4.00202 19.9772 2.09869C19.3163 1.66292 17.9038 0.966701 17.2026 0.726279C16.1734 0.375664 15.119 0.150269 14.0496 0.0500936C13.535 0.00501461 12.3696 -0.00500295 11.956 0.0350673ZM14.5288 1.82821C16.9654 2.19385 19.0641 3.2457 20.8096 4.98374C22.5702 6.7268 23.6145 8.79042 23.9979 11.2698C24.119 12.0561 24.119 13.5888 23.9979 14.3752C23.7003 16.3086 22.994 17.9815 21.8286 19.5343C21.3696 20.1453 20.29 21.2172 19.6745 21.673C17.6364 23.1806 15.4318 23.9119 12.9145 23.9119C10.4022 23.9119 8.18749 23.1756 6.16453 21.673C3.83383 19.935 2.29012 17.3354 1.83609 14.3752C1.70997 13.5788 1.70997 12.0511 1.83104 11.2698C2.41119 7.54824 4.65109 4.49288 7.99579 2.85501C9.28726 2.2239 10.4677 1.90334 12.1325 1.73304C12.526 1.69297 14.0092 1.75308 14.5288 1.82821Z" fill="#3B335E" fill-opacity="0.9"/>
<path d="M12.6473 5.17908C12.4102 5.26423 12.2387 5.4195 12.1378 5.63488C12.0672 5.78014 12.0571 6.24595 12.0571 9.40149V13.0078L12.1731 13.2132C12.2589 13.3734 12.7886 13.8192 14.5038 15.1816C15.7246 16.1483 16.7841 16.9698 16.8597 17.0098C16.9354 17.0499 17.1069 17.0799 17.2431 17.0799C17.8536 17.0799 18.247 16.4238 17.9746 15.8578C17.9141 15.7326 17.3491 15.2517 15.8356 14.0496L13.7723 12.4118L13.7622 9.04586L13.7471 5.67495L13.6058 5.49464C13.3637 5.17908 12.9904 5.05386 12.6473 5.17908Z" fill="#3B335E" fill-opacity="0.9"/>
</svg>
