<svg width="26" height="25" viewBox="0 0 26 25" fill="none" xmlns="http://www.w3.org/2000/svg">
<path d="M5.10156 0.97656V1.95312H4.38379C3.93945 1.95312 3.5293 1.98242 3.31934 2.02636C2.2207 2.25586 1.30273 3.17383 1.07324 4.27246C0.96582 4.78515 0.96582 22.168 1.07324 22.6807C1.30273 23.7793 2.2207 24.6973 3.31934 24.9268C3.60742 24.9853 4.4668 25 8.8125 24.9951H13.9639L13.627 24.6924C13.2852 24.3848 12.6748 23.6865 12.3916 23.2764L12.2354 23.0469L7.91895 23.0371L3.60254 23.0225L3.41211 22.8906C3.30957 22.8174 3.16797 22.6758 3.09961 22.5732L2.97754 22.3926L2.96289 15.7861L2.95313 9.17968H13.5H24.0469V10.2051V11.2305L24.2764 11.3916C24.6865 11.6748 25.3848 12.2852 25.6924 12.627L25.9951 12.9639V8.78906C26 4.15039 26.0049 4.2334 25.6777 3.56445C25.4287 3.06152 24.8916 2.52441 24.3887 2.27539C23.8809 2.02636 23.4756 1.95312 22.6211 1.95312H21.8984V0.97656V-2.86102e-06H20.9219H19.9453V0.97656V1.95312H13.5H7.05469V0.97656V-2.86102e-06H6.07813H5.10156V0.97656ZM5.10156 4.88281V5.85937H6.07813H7.05469V4.88281V3.90625H13.5H19.9453V4.88281V5.85937H20.9219H21.8984V4.87793V3.89648L22.6455 3.91601C23.3486 3.93066 23.4072 3.93554 23.5732 4.05273C23.6758 4.12109 23.8174 4.26269 23.8906 4.36523L24.0225 4.55566L24.0371 5.89355L24.0518 7.22656H13.5049H2.95313V5.99121C2.95313 5.3125 2.97754 4.68261 3.00195 4.58008C3.06543 4.36523 3.39746 4.01855 3.60742 3.95996C3.69043 3.93554 4.06152 3.91113 4.43262 3.91113L5.10156 3.90625V4.88281Z" fill="#4D456C"/>
<path d="M4.71094 12.207V13.1836H5.6875H6.66406V12.207V11.2305H5.6875H4.71094V12.207Z" fill="#4D456C"/>
<path d="M8.61719 12.207V13.1836H9.59375H10.5703V12.207V11.2305H9.59375H8.61719V12.207Z" fill="#4D456C"/>
<path d="M12.5234 12.207V13.1836H13.5H14.4766V12.207V11.2305H13.5H12.5234V12.207Z" fill="#4D456C"/>
<path d="M18.4805 11.8896C16.2637 12.2021 14.2617 13.7256 13.3828 15.7715C12.4844 17.8564 12.6846 20.1709 13.9248 22.0459C14.3545 22.6953 15.1211 23.4619 15.7705 23.8916C17.9824 25.3516 20.834 25.3516 23.0459 23.8916C23.6953 23.4619 24.4619 22.6953 24.8916 22.0459C26.3516 19.834 26.3516 16.9824 24.8916 14.7705C24.4619 14.1211 23.6953 13.3545 23.0459 12.9248C21.6885 12.0312 20.082 11.665 18.4805 11.8896ZM20.5312 13.916C21.8154 14.2334 22.9629 15.166 23.5586 16.3818C23.9053 17.085 24.0176 17.5879 24.0176 18.4082C24.0176 19.2285 23.9053 19.7314 23.5586 20.4346C22.958 21.6602 21.8203 22.583 20.5068 22.9102C19.8867 23.0664 18.9297 23.0664 18.3096 22.9102C16.9961 22.583 15.8535 21.6553 15.2578 20.4346C14.9111 19.7314 14.7988 19.2285 14.7988 18.4082C14.7988 17.5879 14.9111 17.085 15.2578 16.3818C15.8926 15.0781 17.0498 14.1797 18.4854 13.8721C19.0713 13.7451 19.9111 13.7598 20.5312 13.916Z" fill="#4D456C"/>
<path d="M18.3828 17.2607V19.3848H20.1895H21.9961V18.4082V17.4316H21.166H20.3359V16.2842V15.1367H19.3594H18.3828V17.2607Z" fill="#4D456C"/>
<path d="M4.71094 16.1133V17.0898H5.6875H6.66406V16.1133V15.1367H5.6875H4.71094V16.1133Z" fill="#4D456C"/>
<path d="M8.61719 16.1133V17.0898H9.59375H10.5703V16.1133V15.1367H9.59375H8.61719V16.1133Z" fill="#4D456C"/>
<path d="M4.71094 20.0195V20.9961H5.6875H6.66406V20.0195V19.043H5.6875H4.71094V20.0195Z" fill="#4D456C"/>
<path d="M8.61719 20.0195V20.9961H9.59375H10.5703V20.0195V19.043H9.59375H8.61719V20.0195Z" fill="#4D456C"/>
</svg>
