<svg width="27" height="26" viewBox="0 0 27 26" fill="none" xmlns="http://www.w3.org/2000/svg">
<g clip-path="url(#clip0_49_53)">
<path d="M12.6811 0.0337238C12.5852 0.0437414 12.2876 0.0788028 12.0253 0.108856C8.03482 0.559646 4.34707 3.044 2.31906 6.64531C1.58252 7.95761 1.04777 9.59048 0.820756 11.2233C0.72995 11.8494 0.72995 13.8029 0.820756 14.429C1.35046 18.2457 3.39865 21.4863 6.6021 23.575C9.67438 25.5785 13.5488 26.1645 17.1457 25.1628C21.8324 23.8605 25.4495 19.9386 26.3222 15.2103C27.1092 10.9779 25.8026 6.78556 22.7656 3.76527C20.7528 1.77177 18.3313 0.564655 15.4557 0.128891C14.9512 0.0537589 13.0746 -0.0113552 12.6811 0.0337238ZM14.6738 1.55639C18.634 1.91703 22.1401 4.33126 23.8805 7.88749C24.0722 8.27818 24.2993 8.79408 24.385 9.04452C25.6513 12.6508 25.0358 16.5978 22.7404 19.613C22.5084 19.9136 22.2107 20.2842 22.0745 20.4345L21.8324 20.705L21.6407 20.3143C19.986 16.8432 16.1822 14.8297 12.3532 15.3856C9.45746 15.8064 6.88965 17.6897 5.63854 20.3143L5.44684 20.705L5.20469 20.4345C3.55504 18.6113 2.51076 16.2572 2.28879 13.853C1.95079 10.2116 3.46423 6.54514 6.27419 4.19602C8.61497 2.2426 11.6671 1.28091 14.6738 1.55639ZM14.926 16.9133C16.5151 17.1888 18.0891 18.0653 19.1536 19.2674C19.5773 19.7533 20.107 20.5647 20.3391 21.1057C20.6468 21.8119 20.6519 21.7468 20.2634 22.0273C18.861 23.0391 17.1003 23.7503 15.3044 24.0258C14.5779 24.136 12.8274 24.151 12.1514 24.0508C10.87 23.8605 9.77023 23.5299 8.66542 22.994C8.04491 22.6934 6.78371 21.9221 6.70299 21.7919C6.66264 21.7318 6.93506 21.0606 7.16712 20.6398C8.36273 18.456 10.4916 17.0786 13.0594 16.8131C13.4176 16.7781 14.4619 16.8332 14.926 16.9133Z" fill="#3B335E" fill-opacity="0.9"/>
<path d="M13.0798 4.06078C11.1527 4.2962 9.57875 5.63354 9.01877 7.50182C8.85734 8.04276 8.80185 8.96939 8.8977 9.55041C9.07931 10.6724 9.69478 11.7493 10.5726 12.4705C11.0216 12.8412 11.8842 13.282 12.4795 13.4372C13.0798 13.5975 14.225 13.5975 14.8253 13.4372C15.3954 13.282 16.2682 12.8412 16.707 12.4755C17.5848 11.7443 18.2003 10.6724 18.3819 9.55041C18.4778 8.96939 18.4223 8.04276 18.2608 7.50182C17.8522 6.14444 16.8836 5.02247 15.6224 4.45147C14.901 4.13091 13.8466 3.96562 13.0798 4.06078ZM14.0737 5.56843C15.1583 5.71869 16.0966 6.38486 16.5658 7.33653C16.8281 7.86746 16.9189 8.24312 16.9189 8.79408C16.9189 9.73072 16.6364 10.4019 15.9604 11.0781C15.6123 11.4287 15.4509 11.5489 15.1028 11.7192C14.1292 12.19 13.1505 12.19 12.1768 11.7192C11.8338 11.5489 11.6622 11.4237 11.3142 11.0781C10.6432 10.4069 10.3607 9.73573 10.3607 8.79408C10.3607 8.24312 10.4515 7.86746 10.7088 7.34153C11.2334 6.28468 12.3231 5.58846 13.5742 5.51834C13.6348 5.51834 13.8567 5.53837 14.0737 5.56843Z" fill="#3B335E" fill-opacity="0.9"/>
</g>
<defs>
<clipPath id="clip0_49_53">
<rect width="25.8294" height="25.645" fill="white" transform="translate(0.725121 0.00366974)"/>
</clipPath>
</defs>
</svg>
